<?xml version="1.0" encoding="UTF-8" standalone="no"?>
<svg
   viewBox="0 0 50 50"
   version="1.1"
   id="svg1"
   sodipodi:docname="app-store.svg"
   width="50"
   height="50"
   inkscape:version="1.3.2 (091e20e, 2023-11-25)"
   xmlns:inkscape="http://www.inkscape.org/namespaces/inkscape"
   xmlns:sodipodi="http://sodipodi.sourceforge.net/DTD/sodipodi-0.dtd"
   xmlns="http://www.w3.org/2000/svg"
   xmlns:svg="http://www.w3.org/2000/svg">
  <defs
     id="defs1" />
  <sodipodi:namedview
     id="namedview1"
     pagecolor="#ffffff"
     bordercolor="#000000"
     borderopacity="0.25"
     inkscape:showpageshadow="2"
     inkscape:pageopacity="0.0"
     inkscape:pagecheckerboard="0"
     inkscape:deskcolor="#d1d1d1"
     inkscape:zoom="5.6899999"
     inkscape:cx="40.861161"
     inkscape:cy="9.0509668"
     inkscape:window-width="1920"
     inkscape:window-height="1080"
     inkscape:window-x="0"
     inkscape:window-y="0"
     inkscape:window-maximized="0"
     inkscape:current-layer="svg1" />
  <!--!Font Awesome Free 6.5.1 by @fontawesome - https://fontawesome.com License - https://fontawesome.com/license/free Copyright 2024 Fonticons, Inc.-->
  <path
     d="m 24.990927,12.742944 0.825605,-1.424396 c 0.508065,-0.889113 1.642137,-1.188508 2.53125,-0.680443 0.889113,0.508064 1.188508,1.642137 0.680444,2.53125 l -7.938508,13.74496 h 5.742943 c 1.859879,0 2.903226,2.186491 2.095766,3.701612 H 12.09879 c -1.025201,0 -1.850806,-0.825604 -1.850806,-1.850806 0,-1.025202 0.825605,-1.850806 1.850806,-1.850806 h 4.717742 l 6.042339,-10.469759 -1.887097,-3.275201 c -0.508064,-0.889113 -0.208669,-2.014113 0.680444,-2.53125 0.889113,-0.508065 2.014113,-0.20867 2.53125,0.680443 z m -7.140121,19.778225 -1.778225,3.084678 c -0.508065,0.889113 -1.642137,1.188508 -2.53125,0.680443 -0.889113,-0.508064 -1.188508,-1.642137 -0.680444,-2.53125 l 1.324597,-2.28629 c 1.487903,-0.462702 2.703629,-0.108871 3.665322,1.052419 z m 15.323589,-5.597782 h 4.81754 c 1.025202,0 1.850807,0.825605 1.850807,1.850807 0,1.025201 -0.825605,1.850806 -1.850807,1.850806 h -2.676411 l 1.805444,3.13004 c 0.508064,0.889113 0.208669,2.014113 -0.680444,2.53125 -0.889113,0.508065 -2.014113,0.20867 -2.53125,-0.680443 -3.039314,-5.27117 -5.325605,-9.217742 -6.840726,-11.848791 -1.551411,-2.676411 -0.444556,-5.361895 0.653226,-6.269153 1.215726,2.086694 3.030242,5.234879 5.452621,9.435484 z M 25,2.5 C 12.570565,2.5 2.5,12.570565 2.5,25 2.5,37.429435 12.570565,47.5 25,47.5 37.429435,47.5 47.5,37.429435 47.5,25 47.5,12.570565 37.429435,2.5 25,2.5 Z M 44.596774,25 C 44.596774,35.769153 35.878024,44.596774 25,44.596774 14.230847,44.596774 5.403226,35.878024 5.403226,25 5.403226,14.230847 14.121976,5.403226 25,5.403226 c 10.769153,0 19.596774,8.71875 19.596774,19.596774 z"
     id="path1"
     style="stroke-width:0.0907258;fill:#0e7afe;fill-opacity:1" />
</svg>
