<?xml version="1.0" encoding="UTF-8" standalone="no"?>
<svg
   viewBox="0 0 50 50"
   version="1.1"
   id="svg1"
   sodipodi:docname="instagram.svg"
   width="50"
   height="50"
   inkscape:version="1.3.2 (091e20e, 2023-11-25)"
   xmlns:inkscape="http://www.inkscape.org/namespaces/inkscape"
   xmlns:sodipodi="http://sodipodi.sourceforge.net/DTD/sodipodi-0.dtd"
   xmlns="http://www.w3.org/2000/svg"
   xmlns:svg="http://www.w3.org/2000/svg">
  <defs
     id="defs1" />
  <sodipodi:namedview
     id="namedview1"
     pagecolor="#ffffff"
     bordercolor="#000000"
     borderopacity="0.25"
     inkscape:showpageshadow="2"
     inkscape:pageopacity="0.0"
     inkscape:pagecheckerboard="0"
     inkscape:deskcolor="#d1d1d1"
     inkscape:zoom="6.502857"
     inkscape:cx="73.121706"
     inkscape:cy="52.822936"
     inkscape:window-width="1920"
     inkscape:window-height="1080"
     inkscape:window-x="0"
     inkscape:window-y="0"
     inkscape:window-maximized="0"
     inkscape:current-layer="svg1" />
  <!--!Font Awesome Free 6.5.1 by @fontawesome - https://fontawesome.com License - https://fontawesome.com/license/free Copyright 2024 Fonticons, Inc.-->
  <path
     d="m 25.005466,12.439822 c -6.952371,0 -12.560179,5.607808 -12.560179,12.560178 0,6.952371 5.607808,12.560179 12.560179,12.560179 6.95237,0 12.560178,-5.607808 12.560178,-12.560179 0,-6.95237 -5.607808,-12.560178 -12.560178,-12.560178 z m 0,20.725934 c -4.492806,0 -8.165756,-3.662019 -8.165756,-8.165756 0,-4.503736 3.662019,-8.165755 8.165756,-8.165755 4.503736,0 8.165755,3.662019 8.165755,8.165755 0,4.503737 -3.67295,8.165756 -8.165755,8.165756 z m 16.003569,-21.23971 c 0,1.628779 -1.311768,2.929615 -2.929615,2.929615 -1.628779,0 -2.929615,-1.311768 -2.929615,-2.929615 0,-1.617847 1.311768,-2.9296151 2.929615,-2.9296151 1.617847,0 2.929615,1.3117681 2.929615,2.9296151 z m 8.318795,2.973341 C 49.141997,10.975014 48.245622,7.4988289 45.370664,4.6348019 42.506637,1.7707759 39.030452,0.87440088 35.106079,0.67763588 c -4.044618,-0.22956 -16.16754,-0.22956 -20.212158,0 C 10.98048,0.86346888 7.5042945,1.7598439 4.6293363,4.6238709 1.7543781,7.4878979 0.86893475,10.964083 0.67216955,14.888455 c -0.2295594,4.044618 -0.2295594,16.167541 0,20.212159 0.1858338,3.924372 1.08220855,7.400558 3.95716675,10.264584 2.8749582,2.864027 6.3402117,3.760402 10.2645847,3.957167 4.044618,0.229559 16.16754,0.229559 20.212158,0 3.924373,-0.185834 7.400558,-1.082209 10.264585,-3.957167 2.864026,-2.864026 3.760401,-6.340212 3.957166,-10.264584 0.22956,-4.044618 0.22956,-16.156609 0,-20.201227 z M 44.102621,39.44038 c -0.852649,2.142554 -2.50329,3.793195 -4.656776,4.656776 -3.224763,1.278974 -10.876743,0.983826 -14.440379,0.983826 -3.563637,0 -11.226548,0.284216 -14.44038,-0.983826 C 8.4225321,43.244507 6.7718907,41.593865 5.9083101,39.44038 4.6293363,36.215617 4.9244841,28.563637 4.9244841,25 c 0,-3.563636 -0.2842164,-11.226547 0.983826,-14.440379 0.8526492,-2.1425541 2.5032906,-3.7931961 4.6567759,-4.6567761 3.224763,-1.278974 10.876743,-0.983826 14.44038,-0.983826 3.563636,0 11.226547,-0.284217 14.440379,0.983826 2.142554,0.852649 3.793196,2.50329 4.656776,4.6567761 1.278974,3.224763 0.983826,10.876743 0.983826,14.440379 0,3.563637 0.295148,11.226548 -0.983826,14.44038 z"
     id="path1"
     style="fill:#833ab4;fill-opacity:1;stroke-width:0.109314" />
</svg>
