<?xml version="1.0" encoding="UTF-8" standalone="no"?>
<svg
   viewBox="0 0 50 50"
   version="1.1"
   id="svg1"
   sodipodi:docname="telegram.svg"
   width="50"
   height="50"
   inkscape:version="1.3.2 (091e20e, 2023-11-25)"
   xmlns:inkscape="http://www.inkscape.org/namespaces/inkscape"
   xmlns:sodipodi="http://sodipodi.sourceforge.net/DTD/sodipodi-0.dtd"
   xmlns="http://www.w3.org/2000/svg"
   xmlns:svg="http://www.w3.org/2000/svg">
  <defs
     id="defs1" />
  <sodipodi:namedview
     id="namedview1"
     pagecolor="#ffffff"
     bordercolor="#000000"
     borderopacity="0.25"
     inkscape:showpageshadow="2"
     inkscape:pageopacity="0.0"
     inkscape:pagecheckerboard="0"
     inkscape:deskcolor="#d1d1d1"
     inkscape:zoom="5.8735483"
     inkscape:cx="41.627308"
     inkscape:cy="44.52164"
     inkscape:window-width="1920"
     inkscape:window-height="1052"
     inkscape:window-x="0"
     inkscape:window-y="28"
     inkscape:window-maximized="0"
     inkscape:current-layer="svg1" />
  <!--!Font Awesome Free 6.5.1 by @fontawesome - https://fontawesome.com License - https://fontawesome.com/license/free Copyright 2024 Fonticons, Inc.-->
  <path
     d="M 25,0.5 C 11.465726,0.5 0.5,11.465726 0.5,25 0.5,38.534274 11.465726,49.5 25,49.5 38.534274,49.5 49.5,38.534274 49.5,25 49.5,11.465726 38.534274,0.5 25,0.5 Z m 11.360887,16.665927 c -0.365524,3.872581 -1.965927,13.277419 -2.776008,17.614315 -0.345766,1.8375 -1.01754,2.45 -1.669556,2.509275 -1.422581,0.128427 -2.499396,-0.938509 -3.88246,-1.84738 -2.15363,-1.412701 -3.37863,-2.291936 -5.463105,-3.675 -2.420363,-1.590524 -0.849597,-2.469758 0.523588,-3.902218 0.365525,-0.375402 6.628831,-6.075605 6.74738,-6.589314 0.01976,-0.06916 0.02963,-0.30625 -0.118549,-0.434678 -0.148185,-0.128427 -0.355645,-0.07904 -0.503831,-0.04939 q -0.326007,0.06915 -10.333467,6.826412 -1.462097,1.007661 -2.65746,0.978024 C 15.348186,28.57621 13.66875,28.102017 12.414113,27.696976 10.882863,27.203024 9.6578629,26.93629 9.7665323,26.086694 q 0.079032,-0.661895 1.8276217,-1.353427 10.70887,-4.662904 14.285079,-6.154638 c 6.806654,-2.825403 8.219356,-3.319355 9.138106,-3.339112 0.20746,0 0.652016,0.04939 0.948387,0.286491 a 1.0372983,1.0372983 0 0 1 0.345766,0.661896 4.3270161,4.3270161 0 0 1 0.04939,0.978023 z"
     id="path1"
     style="fill:#2aabee;fill-opacity:1;stroke-width:0.0987899" />
</svg>
