<?xml version="1.0" encoding="UTF-8" standalone="no"?>
<svg
   viewBox="0 0 50 50"
   version="1.1"
   id="svg1"
   sodipodi:docname="whatsapp.svg"
   width="50"
   height="50"
   inkscape:version="1.3.2 (091e20e, 2023-11-25)"
   xmlns:inkscape="http://www.inkscape.org/namespaces/inkscape"
   xmlns:sodipodi="http://sodipodi.sourceforge.net/DTD/sodipodi-0.dtd"
   xmlns="http://www.w3.org/2000/svg"
   xmlns:svg="http://www.w3.org/2000/svg">
  <defs
     id="defs1" />
  <sodipodi:namedview
     id="namedview1"
     pagecolor="#ffffff"
     bordercolor="#000000"
     borderopacity="0.25"
     inkscape:showpageshadow="2"
     inkscape:pageopacity="0.0"
     inkscape:pagecheckerboard="0"
     inkscape:deskcolor="#d1d1d1"
     inkscape:zoom="13.005714"
     inkscape:cx="24.489236"
     inkscape:cy="23.02834"
     inkscape:window-width="1920"
     inkscape:window-height="1052"
     inkscape:window-x="0"
     inkscape:window-y="28"
     inkscape:window-maximized="0"
     inkscape:current-layer="svg1" />
  <!--!Font Awesome Free 6.5.1 by @fontawesome - https://fontawesome.com License - https://fontawesome.com/license/free Copyright 2024 Fonticons, Inc.-->
  <path
     d="M 42.160938,7.6203125 C 37.578125,3.0265625 31.475,0.5 24.989062,0.5 11.601563,0.5 0.7078125,11.39375 0.7078125,24.78125 c 0,4.276562 1.115625,8.454688 3.2375,12.140625 L 0.5,49.5 13.373438,46.120312 c 3.543749,1.935938 7.535937,2.953125 11.604687,2.953125 h 0.01094 C 38.365625,49.073437 49.5,38.179688 49.5,24.792187 49.5,18.30625 46.74375,12.214062 42.160938,7.6203125 Z M 24.989062,44.982813 c -3.63125,0 -7.185937,-0.973438 -10.281249,-2.810938 L 13.975,41.734375 6.340625,43.735938 8.375,36.2875 7.89375,35.521875 C 5.8703125,32.30625 4.809375,28.598437 4.809375,24.78125 4.809375,13.657812 13.865625,4.6015626 25,4.6015626 c 5.392187,0 10.45625,2.0999999 14.2625,5.9171874 3.80625,3.817188 6.146875,8.88125 6.135937,14.273437 0,11.134376 -9.285937,20.190626 -20.409375,20.190626 z m 11.06875,-15.115625 c -0.601562,-0.30625 -3.587499,-1.771876 -4.145312,-1.968751 -0.557813,-0.207812 -0.9625,-0.30625 -1.367188,0.30625 -0.404687,0.6125 -1.564062,1.968751 -1.925,2.384375 -0.349999,0.404688 -0.710937,0.459375 -1.312499,0.153125 -3.565625,-1.782812 -5.906251,-3.182812 -8.257813,-7.218749 -0.623437,-1.071875 0.623437,-0.995313 1.782813,-3.314063 0.196875,-0.404687 0.09844,-0.754687 -0.05468,-1.060937 -0.153125,-0.30625 -1.367188,-3.292188 -1.870313,-4.50625 -0.492187,-1.181251 -0.995312,-1.017188 -1.367187,-1.039063 -0.35,-0.02187 -0.754687,-0.02187 -1.159375,-0.02187 -0.404687,0 -1.060937,0.153125 -1.618751,0.754688 -0.557812,0.6125 -2.121874,2.078124 -2.121874,5.064062 0,2.985937 2.176562,5.873438 2.471875,6.278125 0.30625,0.404688 4.276563,6.529688 10.368749,9.165625 3.850001,1.6625 5.359375,1.804688 7.284376,1.520312 1.170313,-0.174999 3.587499,-1.465625 4.090625,-2.887499 0.503125,-1.421875 0.503125,-2.635938 0.35,-2.887501 -0.142187,-0.273437 -0.546876,-0.426562 -1.148438,-0.721874 z"
     id="path1"
     style="fill:#25d366;fill-opacity:1;stroke-width:0.109375" />
</svg>
