<?xml version="1.0" encoding="UTF-8" standalone="no"?>
<svg
   viewBox="0 0 50 50"
   version="1.1"
   id="svg1"
   sodipodi:docname="youtube.svg"
   width="50"
   height="50"
   inkscape:version="1.3.2 (091e20e, 2023-11-25)"
   xmlns:inkscape="http://www.inkscape.org/namespaces/inkscape"
   xmlns:sodipodi="http://sodipodi.sourceforge.net/DTD/sodipodi-0.dtd"
   xmlns="http://www.w3.org/2000/svg"
   xmlns:svg="http://www.w3.org/2000/svg">
  <defs
     id="defs1" />
  <sodipodi:namedview
     id="namedview1"
     pagecolor="#ffffff"
     bordercolor="#000000"
     borderopacity="0.25"
     inkscape:showpageshadow="2"
     inkscape:pageopacity="0.0"
     inkscape:pagecheckerboard="0"
     inkscape:deskcolor="#d1d1d1"
     inkscape:zoom="10.115555"
     inkscape:cx="40.976495"
     inkscape:cy="22.094684"
     inkscape:window-width="1920"
     inkscape:window-height="1052"
     inkscape:window-x="0"
     inkscape:window-y="28"
     inkscape:window-maximized="0"
     inkscape:current-layer="svg1" />
  <!--!Font Awesome Free 6.5.1 by @fontawesome - https://fontawesome.com License - https://fontawesome.com/license/free Copyright 2024 Fonticons, Inc.-->
  <path
     d="M 48.477297,13.167154 C 47.91212,11.041011 46.252472,9.372391 44.144269,8.807213 40.322593,7.77554 25,7.77554 25,7.77554 c 0,0 -15.322593,0 -19.144269,1.031673 C 3.747528,9.372391 2.08788,11.041011 1.522702,13.167154 0.5,17.015745 0.5,25.035884 0.5,25.035884 c 0,0 0,8.020139 1.022702,11.868727 0.565178,2.126146 2.224826,3.723001 4.333029,4.288174 C 9.677407,42.22446 25,42.22446 25,42.22446 c 0,0 15.322593,0 19.144269,-1.031675 2.108203,-0.565173 3.767851,-2.170999 4.333028,-4.288174 C 49.5,33.056023 49.5,25.035884 49.5,25.035884 c 0,0 0,-8.020139 -1.022703,-11.86873 z M 19.994141,32.320395 V 17.751373 l 12.801721,7.284511 z"
     id="path1"
     style="stroke-width:0.0897106;fill:#ff0000;fill-opacity:1" />
</svg>
