<?xml version="1.0" encoding="UTF-8" standalone="no"?>
<svg
   viewBox="0 0 25 25"
   version="1.1"
   id="svg1"
   sodipodi:docname="ev-plug-ccs2.svg"
   width="25"
   height="25"
   inkscape:version="1.3.2 (091e20e, 2023-11-25)"
   xmlns:inkscape="http://www.inkscape.org/namespaces/inkscape"
   xmlns:sodipodi="http://sodipodi.sourceforge.net/DTD/sodipodi-0.dtd"
   xmlns="http://www.w3.org/2000/svg"
   xmlns:svg="http://www.w3.org/2000/svg">
  <defs
     id="defs1" />
  <sodipodi:namedview
     id="namedview1"
     pagecolor="#ffffff"
     bordercolor="#000000"
     borderopacity="0.25"
     inkscape:showpageshadow="2"
     inkscape:pageopacity="0.0"
     inkscape:pagecheckerboard="0"
     inkscape:deskcolor="#d1d1d1"
     inkscape:zoom="9.7109331"
     inkscape:cx="28.267109"
     inkscape:cy="44.640406"
     inkscape:window-width="1920"
     inkscape:window-height="1052"
     inkscape:window-x="0"
     inkscape:window-y="0"
     inkscape:window-maximized="0"
     inkscape:current-layer="svg1" />
  <path
     d="M 9.6966701,4.6116149 A 0.91018706,0.91018706 0 1 1 10.606856,5.521899 0.92232289,0.92232289 0 0 1 9.6966701,4.6117117 Z m 4.6480209,0.910382 A 0.91018706,0.91018706 0 1 0 13.434504,4.6118096 0.92232289,0.92232289 0 0 0 14.344691,5.5219969 Z M 12.500045,9.114202 A 1.2135827,1.2135827 0 1 0 11.286463,7.9006194 1.2135827,1.2135827 0 0 0 12.500045,9.114202 Z m -3.8227855,0 A 1.2135827,1.2135827 0 1 0 7.4636771,7.9006194 1.2135827,1.2135827 0 0 0 8.6772595,9.114202 Z m 7.6455715,0 A 1.2135827,1.2135827 0 1 0 15.109248,7.9006194 1.2135827,1.2135827 0 0 0 16.322831,9.114202 Z m -5.740247,0.934458 a 1.2135827,1.2135827 0 1 0 1.213583,1.213583 1.2135827,1.2135827 0 0 0 -1.213583,-1.213583 z m 3.834922,0 a 1.2135827,1.2135827 0 1 0 1.213583,1.213583 1.2135827,1.2135827 0 0 0 -1.213583,-1.213583 z m -3.131043,9.126143 a 1.8203741,1.8203741 0 1 1 -1.8203749,-1.820375 1.8203741,1.8203741 0 0 1 1.8203749,1.820375 z m -1.213584,0 a 0.60679138,0.60679138 0 1 0 -0.6067909,0.606791 0.60679138,0.60679138 0 0 0 0.6067909,-0.606791 z m 7.281497,0 a 1.8203741,1.8203741 0 1 1 -1.820374,-1.820375 1.8203741,1.8203741 0 0 1 1.820374,1.82018 z m -1.213583,0 a 0.60679138,0.60679138 0 1 0 -0.606791,0.606791 0.60679138,0.60679138 0 0 0 0.606791,-0.606791 z m 4.854331,0 a 4.8543309,4.8543309 0 0 1 -4.854331,4.85433 H 8.8592972 A 4.8543309,4.8543309 0 0 1 7.500084,14.514645 8.4950793,8.4950793 0 0 1 5.5219441,2.7912415 8.7620674,8.7620674 0 0 1 7.2452314,0.97086695 H 17.754859 a 8.7620674,8.7620674 0 0 1 1.723287,1.82037455 8.4950793,8.4950793 0 0 1 -1.97814,11.7232085 4.8543309,4.8543309 0 0 1 3.495118,4.660158 z M 12.500045,14.320471 A 6.6747052,6.6747052 0 0 0 19.17475,7.6457668 6.5533468,6.5533468 0 0 0 17.961168,3.8351164 6.0679138,6.0679138 0 0 0 17.063116,2.7912415 H 7.9248387 A 6.759656,6.759656 0 0 0 7.0146513,3.8349217 6.6747052,6.6747052 0 0 0 12.500045,14.320278 Z m 6.674705,4.854332 A 3.0339568,3.0339568 0 0 0 16.140793,16.140846 H 8.8592972 a 3.033957,3.033957 0 0 0 0,6.067914 h 7.2814958 a 3.0339568,3.0339568 0 0 0 3.033957,-3.033957 z"
     id="path1"
     style="fill:#666666;fill-opacity:1;stroke-width:0.0970866" />
</svg>
