<?xml version="1.0" encoding="UTF-8" standalone="no"?>
<svg
   viewBox="0 0 25 25"
   version="1.1"
   id="svg1"
   sodipodi:docname="ev-plug-ccs1.svg"
   inkscape:version="1.3.2 (091e20e, 2023-11-25)"
   width="25"
   height="25"
   xmlns:inkscape="http://www.inkscape.org/namespaces/inkscape"
   xmlns:sodipodi="http://sodipodi.sourceforge.net/DTD/sodipodi-0.dtd"
   xmlns="http://www.w3.org/2000/svg"
   xmlns:svg="http://www.w3.org/2000/svg">
  <defs
     id="defs1" />
  <sodipodi:namedview
     id="namedview1"
     pagecolor="#ffffff"
     bordercolor="#000000"
     borderopacity="0.25"
     inkscape:showpageshadow="2"
     inkscape:pageopacity="0.0"
     inkscape:pagecheckerboard="0"
     inkscape:deskcolor="#d1d1d1"
     showgrid="false"
     inkscape:zoom="23.444802"
     inkscape:cx="18.447586"
     inkscape:cy="14.822049"
     inkscape:window-width="1920"
     inkscape:window-height="1052"
     inkscape:window-x="0"
     inkscape:window-y="28"
     inkscape:window-maximized="0"
     inkscape:current-layer="svg1" />
  <path
     d="M 12.5,14.928782 A 7.2864933,7.2864933 0 1 0 5.2135067,7.6422896 7.2864933,7.2864933 0 0 0 12.5,14.928782 Z m 0,-12.7513623 A 5.46487,5.46487 0 1 1 7.0351299,7.6422896 5.4527258,5.4527258 0 0 1 12.5,2.1774197 Z m 0.910811,3.0360388 A 1.2144155,1.2144155 0 1 1 14.625227,6.427874 1.2144155,1.2144155 0 0 1 13.410811,5.2134585 Z m 2.428832,2.1253243 A 0.91081165,0.91081165 0 1 1 14.928831,8.2494973 0.92295581,0.92295581 0 0 1 15.839643,7.3387828 Z M 11.285584,10.678328 A 1.2144155,1.2144155 0 1 1 12.5,11.892743 1.2144155,1.2144155 0 0 1 11.285584,10.678328 Z M 9.1603571,9.1604061 A 0.91081165,0.91081165 0 1 1 10.071169,8.2494973 0.92295581,0.92295581 0 0 1 9.1603571,9.1604061 Z m 0,-3.9468504 A 1.2144155,1.2144155 0 1 1 10.374772,6.4279712 1.2144155,1.2144155 0 0 1 9.1603571,5.2135557 Z M 16.750454,16.143295 H 8.2495455 a 4.2504545,4.2504545 0 0 0 0,8.500909 h 8.5009085 a 4.2504545,4.2504545 0 0 0 0,-8.500909 z m 0,6.679285 H 8.2495455 a 2.4288311,2.4288311 0 0 1 0,-4.857662 h 8.5009085 a 2.4288311,2.4288311 0 0 1 0,4.857662 z M 8.8567532,18.572126 a 1.8216233,1.8216233 0 1 0 1.8216228,1.821623 1.8216233,1.8216233 0 0 0 -1.8216228,-1.821623 z m 0,2.428831 A 0.60720777,0.60720777 0 1 1 9.463961,20.393749 0.60720777,0.60720777 0 0 1 8.8567532,21.000957 Z M 16.44685,18.572126 a 1.8216233,1.8216233 0 1 0 1.821623,1.821623 1.8216233,1.8216233 0 0 0 -1.821623,-1.821623 z m 0,2.428831 a 0.60720777,0.60720777 0 1 1 0.607208,-0.607208 0.60720777,0.60720777 0 0 1 -0.607208,0.607208 z"
     id="path1"
     style="fill:#666666;fill-opacity:1;stroke-width:0.0971532" />
</svg>
