<?xml version="1.0" encoding="UTF-8" standalone="no"?>
<svg
   height="300.621"
   viewBox="0 0 300 300.621"
   width="300"
   version="1.1"
   id="svg1"
   sodipodi:docname="ev-plug-type1.svg"
   inkscape:version="1.3.2 (091e20e, 2023-11-25)"
   xmlns:inkscape="http://www.inkscape.org/namespaces/inkscape"
   xmlns:sodipodi="http://sodipodi.sourceforge.net/DTD/sodipodi-0.dtd"
   xmlns="http://www.w3.org/2000/svg"
   xmlns:svg="http://www.w3.org/2000/svg">
  <defs
     id="defs1" />
  <sodipodi:namedview
     id="namedview1"
     pagecolor="#ffffff"
     bordercolor="#000000"
     borderopacity="0.25"
     inkscape:showpageshadow="2"
     inkscape:pageopacity="0.0"
     inkscape:pagecheckerboard="0"
     inkscape:deskcolor="#d1d1d1"
     showgrid="false"
     inkscape:zoom="1.1471354"
     inkscape:cx="-140.3496"
     inkscape:cy="-4.7945516"
     inkscape:window-width="1920"
     inkscape:window-height="1080"
     inkscape:window-x="0"
     inkscape:window-y="0"
     inkscape:window-maximized="0"
     inkscape:current-layer="svg1" />
  <path
     d="m 157.14286,193.16765 c 0,4 -3.14286,7.14285 -7.14286,7.14285 -4,0 -7.14286,-3.14285 -7.14286,-7.14285 0,-4 3.14286,-7.14286 7.14286,-7.14286 4,0 7.14286,3.14286 7.14286,7.14286 m 35.71428,-64.28572 c 4,0 7.14286,-3.14286 7.14286,-7.14286 0,-4 -3.14286,-7.14285 -7.14286,-7.14285 -4,0 -7.14285,3.14285 -7.14285,7.14285 0,4 3.14285,7.14286 7.14285,7.14286 m -85.71428,0 c 4,0 7.14285,-3.14286 7.14285,-7.14286 0,-4 -3.14285,-7.14285 -7.14285,-7.14285 -4,0 -7.14286,3.14285 -7.14286,7.14285 0,4 3.14286,7.14286 7.14286,7.14286 m 57.14285,120.28572 v 15.42857 H 135.71429 V 249.16765 C 87.285714,242.16765 50,200.73908 50,150.3105 50,99.881929 87.285714,58.453357 135.71429,51.453357 V 36.024786 h 28.57142 V 51.453357 C 212.71429,58.453357 250,100.3105 250,150.3105 c 0,50 -37.28571,91.85715 -85.71429,98.85715 m 0,-127.42858 c 0,15.85715 12.85715,28.57143 28.57143,28.57143 15.71429,0 28.57143,-12.71428 28.57143,-28.57143 0,-15.85714 -12.71428,-28.571427 -28.57143,-28.571427 -15.85714,0 -28.57143,12.857147 -28.57143,28.571427 m -85.714281,0 c 0,15.85715 12.857142,28.57143 28.571431,28.57143 15.71428,0 28.57143,-12.71428 28.57143,-28.57143 0,-15.85714 -12.71429,-28.571427 -28.57143,-28.571427 -15.857146,0 -28.571431,12.857147 -28.571431,28.571427 m 35.714281,57.14286 c 0,-11.85714 -9.57142,-21.42857 -21.428567,-21.42857 -11.857143,0 -21.428572,9.57143 -21.428572,21.42857 0,11.85715 9.571429,21.42857 21.428572,21.42857 11.857147,0 21.428567,-9.57142 21.428567,-21.42857 m 64.28572,14.28572 c 0,-15.71429 -12.71429,-28.57143 -28.57143,-28.57143 -15.85714,0 -28.57143,12.85714 -28.57143,28.57143 0,15.71428 12.85714,28.57143 28.57143,28.57143 15.71429,0 28.57143,-12.71429 28.57143,-28.57143 m 28.57143,7.14285 c 11.85714,0 21.42857,-9.57142 21.42857,-21.42857 0,-11.85714 -9.57143,-21.42857 -21.42857,-21.42857 -11.85715,0 -21.42857,9.57143 -21.42857,21.42857 0,11.85715 9.57142,21.42857 21.42857,21.42857 z"
     id="path1"
     style="stroke-width:14.2857" />
</svg>
