<svg viewBox="0 0 300 300.621" xmlns="http://www.w3.org/2000/svg"><path d="M150 175.12a75 75 0 1 0-75-75 75 75 0 0 0 75 75zm0-131.25a56.25 56.25 0 1 1-56.25 56.25A56.125 56.125 0 0 1 150 43.87zm9.375 31.25a12.5 12.5 0 1 1 12.5 12.5 12.5 12.5 0 0 1-12.5-12.5zm25 21.876A9.375 9.375 0 1 1 175 106.37a9.5 9.5 0 0 1 9.375-9.374zM137.5 131.37a12.5 12.5 0 1 1 12.5 12.5 12.5 12.5 0 0 1-12.5-12.5zm-21.875-15.624A9.375 9.375 0 1 1 125 106.37a9.5 9.5 0 0 1-9.375 9.376zm0-40.625a12.5 12.5 0 1 1 12.5 12.5 12.5 12.5 0 0 1-12.5-12.5zm78.125 112.5h-87.5a43.75 43.75 0 0 0 0 87.5h87.5a43.75 43.75 0 0 0 0-87.5zm0 68.75h-87.5a25 25 0 0 1 0-50h87.5a25 25 0 0 1 0 50zm-81.25-43.75a18.75 18.75 0 1 0 18.75 18.75 18.75 18.75 0 0 0-18.75-18.75zm0 25a6.25 6.25 0 1 1 6.25-6.25 6.25 6.25 0 0 1-6.25 6.25zm78.125-25a18.75 18.75 0 1 0 18.75 18.75 18.75 18.75 0 0 0-18.75-18.75zm0 25a6.25 6.25 0 1 1 6.25-6.25 6.25 6.25 0 0 1-6.25 6.25z"/></svg>