<?xml version="1.0" encoding="UTF-8" standalone="no"?>
<svg
   height="25"
   viewBox="0 0 25 25"
   width="25"
   version="1.1"
   id="svg1"
   sodipodi:docname="ev-plug-gbt-standart.svg"
   inkscape:version="1.3.2 (091e20e, 2023-11-25)"
   xmlns:inkscape="http://www.inkscape.org/namespaces/inkscape"
   xmlns:sodipodi="http://sodipodi.sourceforge.net/DTD/sodipodi-0.dtd"
   xmlns="http://www.w3.org/2000/svg"
   xmlns:svg="http://www.w3.org/2000/svg">
  <defs
     id="defs1" />
  <sodipodi:namedview
     id="namedview1"
     pagecolor="#ffffff"
     bordercolor="#000000"
     borderopacity="0.25"
     inkscape:showpageshadow="2"
     inkscape:pageopacity="0.0"
     inkscape:pagecheckerboard="0"
     inkscape:deskcolor="#d1d1d1"
     inkscape:zoom="4.5052084"
     inkscape:cx="73.803467"
     inkscape:cy="12.319075"
     inkscape:window-width="1920"
     inkscape:window-height="1052"
     inkscape:window-x="0"
     inkscape:window-y="0"
     inkscape:window-maximized="0"
     inkscape:current-layer="svg1" />
  <path
     d="m 5.75,11 c 0,0.42 -0.33,0.75 -0.75,0.75 -0.42,0 -0.75,-0.33 -0.75,-0.75 0,-0.42 0.33,-0.75 0.75,-0.75 0.42,0 0.75,0.33 0.75,0.75 m 3,5.25 C 8.33,16.25 8,16.58 8,17 c 0,0.42 0.33,0.75 0.75,0.75 0.42,0 0.75,-0.33 0.75,-0.75 0,-0.42 -0.33,-0.75 -0.75,-0.75 m 0,-9.75 C 9.17,6.5 9.5,6.17 9.5,5.75 9.5,5.33 9.17,5 8.75,5 8.33,5 8,5.33 8,5.75 8,6.17 8.33,6.5 8.75,6.5 m 7.5,0 C 16.67,6.5 17,6.17 17,5.75 17,5.33 16.67,5 16.25,5 15.83,5 15.5,5.33 15.5,5.75 c 0,0.42 0.33,0.75 0.75,0.75 m -3.75,3.75 c -0.42,0 -0.75,0.33 -0.75,0.75 0,0.42 0.33,0.75 0.75,0.75 0.42,0 0.75,-0.33 0.75,-0.75 0,-0.42 -0.33,-0.75 -0.75,-0.75 m 12,0.75 c 0,6.63 -5.37,12 -12,12 -6.63,0 -12,-5.37 -12,-12 0,-3.5849991 1.59,-6.795 4.08,-9 h 15.84 c 2.49,2.205 4.08,5.4150009 4.08,9 M 14,5.75 C 14,6.9950009 15.005001,8 16.25,8 17.495001,8 18.5,6.9950009 18.5,5.75 18.5,4.505 17.495001,3.5 16.25,3.5 15.005001,3.5 14,4.505 14,5.75 m -7.5,0 C 6.5,6.9950009 7.5050009,8 8.75,8 9.994999,8 11,6.9950009 11,5.75 11,4.505 9.994999,3.5 8.75,3.5 7.5050009,3.5 6.5,4.505 6.5,5.75 M 5,14 C 6.665001,14 8,12.665001 8,11 8,9.35 6.665001,8 5,8 3.335,8 2,9.35 2,11 c 0,1.665001 1.35,3 3,3 m 6.75,3 c 0,-1.65 -1.335001,-3 -3,-3 -1.6649991,0 -3,1.35 -3,3 0,1.665001 1.35,3 3,3 1.65,0 3,-1.334999 3,-3 m 0.75,-3 c 1.665001,0 3,-1.334999 3,-3 0,-1.65 -1.334999,-3 -3,-3 -1.665001,0 -3,1.35 -3,3 0,1.665001 1.35,3 3,3 m 6.75,3 c 0,-1.65 -1.335001,-3 -3,-3 -1.664999,0 -3,1.35 -3,3 0,1.665001 1.35,3 3,3 1.65,0 3,-1.334999 3,-3 M 23,11 c 0,-1.65 -1.335001,-3 -3,-3 -1.665001,0 -3,1.35 -3,3 0,1.665001 1.35,3 3,3 1.65,0 3,-1.334999 3,-3 m -3,-0.75 c -0.42,0 -0.75,0.33 -0.75,0.75 0,0.42 0.33,0.75 0.75,0.75 0.42,0 0.75,-0.33 0.75,-0.75 0,-0.42 -0.33,-0.75 -0.75,-0.75 m -3.75,6 c -0.42,0 -0.75,0.33 -0.75,0.75 0,0.42 0.33,0.75 0.75,0.75 0.42,0 0.75,-0.33 0.75,-0.75 0,-0.42 -0.33,-0.75 -0.75,-0.75 z"
     id="path1"
     style="fill:#666666;stroke-width:1.5" />
</svg>
