<?xml version="1.0" encoding="UTF-8" standalone="no"?>
<!-- Created with Inkscape (http://www.inkscape.org/) -->

<svg
   width="25"
   height="25"
   viewBox="0 0 6.6145832 6.6145835"
   version="1.1"
   id="svg1"
   xml:space="preserve"
   inkscape:version="1.3.2 (091e20e, 2023-11-25)"
   sodipodi:docname="ev-plug-type2.svg"
   xmlns:inkscape="http://www.inkscape.org/namespaces/inkscape"
   xmlns:sodipodi="http://sodipodi.sourceforge.net/DTD/sodipodi-0.dtd"
   xmlns="http://www.w3.org/2000/svg"
   xmlns:svg="http://www.w3.org/2000/svg"><sodipodi:namedview
     id="namedview1"
     pagecolor="#ffffff"
     bordercolor="#000000"
     borderopacity="0.25"
     inkscape:showpageshadow="2"
     inkscape:pageopacity="0.0"
     inkscape:pagecheckerboard="0"
     inkscape:deskcolor="#d1d1d1"
     inkscape:document-units="mm"
     inkscape:zoom="36.6467"
     inkscape:cx="15.240117"
     inkscape:cy="13.84845"
     inkscape:window-width="1920"
     inkscape:window-height="1052"
     inkscape:window-x="0"
     inkscape:window-y="0"
     inkscape:window-maximized="0"
     inkscape:current-layer="layer6" /><defs
     id="defs1" /><g
     inkscape:groupmode="layer"
     id="layer3"
     inkscape:label="svg" /><g
     inkscape:groupmode="layer"
     id="layer5"
     inkscape:label="pins_"
     style="display:inline" /><g
     inkscape:groupmode="layer"
     id="layer4"
     inkscape:label="pins"
     style="display:inline" /><g
     inkscape:groupmode="layer"
     id="layer6"
     inkscape:label="ring"><g
       id="g16"
       transform="matrix(0.1240757,0,0,0.1240757,1.8516008,-0.2225311)"
       style="stroke-width:0.99938989;stroke-dasharray:none;fill:#999999"><path
         d="M 6.6714274,31.171224 A 4,4 0 0 0 2.6716715,35.17098 4,4 0 0 0 6.6714274,39.170736 4,4 0 0 0 10.6717,35.17098 4,4 0 0 0 6.6714274,31.171224 Z m -0.018087,3.094901 a 1,1 0 0 1 0.9999389,0.999939 1,1 0 0 1 -0.9999389,0.999939 1,1 0 0 1 -0.999939,-0.999939 1,1 0 0 1 0.999939,-0.999939 z"
         style="fill:#666666;stroke-width:0.99938989;fill-opacity:1;stroke-dasharray:none"
         id="path13" /><path
         d="m 16.427938,31.207397 a 4,4 0 0 0 -3.999756,3.999756 4,4 0 0 0 3.999756,4.000273 4,4 0 0 0 4.000272,-4.000273 4,4 0 0 0 -4.000272,-3.999756 z m -0.01499,2.993099 a 1,1 0 0 1 0.999939,0.999939 1,1 0 0 1 -0.999939,0.999939 1,1 0 0 1 -0.999939,-0.999939 1,1 0 0 1 0.999939,-0.999939 z"
         style="fill:#666666;stroke-width:0.99938989;fill-opacity:1;stroke-dasharray:none"
         id="path15" /><path
         d="m 21.188888,22.729879 a 4,4 0 0 0 -3.999756,3.999756 4,4 0 0 0 3.999756,4.000272 4,4 0 0 0 4.000272,-4.000272 4,4 0 0 0 -4.000272,-3.999756 z m 0.09457,3.103686 a 1,1 0 0 1 0.999939,0.999939 1,1 0 0 1 -0.999939,0.999939 1,1 0 0 1 -0.999939,-0.999939 1,1 0 0 1 0.999939,-0.999939 z"
         style="fill:#666666;stroke-width:0.99938989;fill-opacity:1;stroke-dasharray:none"
         id="path7" /><path
         d="m 11.556401,22.667867 a 4,4 0 0 0 -4.0002731,4.000273 4,4 0 0 0 4.0002731,3.999756 4,4 0 0 0 3.999755,-3.999756 4,4 0 0 0 -3.999755,-4.000273 z m -0.03049,3.083533 a 1,1 0 0 1 0.999939,0.999939 1,1 0 0 1 -0.999939,1.000455 1,1 0 0 1 -0.999939,-1.000455 1,1 0 0 1 0.999939,-0.999939 z"
         style="fill:#666666;stroke-width:0.99938989;fill-opacity:1;stroke-dasharray:none"
         id="path9" /><path
         d="m 2.0277832,22.66425 a 4,4 0 0 0 -4.0002726,3.999756 4,4 0 0 0 4.0002726,4.000272 4,4 0 0 0 3.9997559,-4.000272 4,4 0 0 0 -3.9997559,-3.999756 z m -0.2268595,3.131075 a 1,1 0 0 1 0.9999389,0.999939 1,1 0 0 1 -0.9999389,0.999939 1,1 0 0 1 -0.999939,-0.999939 1,1 0 0 1 0.999939,-0.999939 z"
         style="fill:#666666;stroke-width:0.99938989;fill-opacity:1;stroke-dasharray:none"
         id="path11" /><path
         d="M 6.6223348,15.712736 A 3.5,3.5 0 0 0 3.12229,19.212781 3.5,3.5 0 0 0 6.6223348,22.712826 3.5,3.5 0 0 0 10.12238,19.212781 3.5,3.5 0 0 0 6.6223348,15.712736 Z m 0.075448,2.552299 a 1,1 0 0 1 0.999939,0.999939 1,1 0 0 1 -0.999939,0.999939 1,1 0 0 1 -0.999939,-0.999939 1,1 0 0 1 0.999939,-0.999939 z"
         style="fill:#666666;stroke-width:0.99938989;fill-opacity:1;stroke-dasharray:none"
         id="path3" /><path
         d="m 16.28221,15.615584 a 3.5,3.5 0 0 0 -3.500044,3.500045 3.5,3.5 0 0 0 3.500044,3.500045 3.5,3.5 0 0 0 3.499528,-3.500045 3.5,3.5 0 0 0 -3.499528,-3.500045 z m 0.05271,2.569869 a 1,1 0 0 1 0.999939,0.999939 1,1 0 0 1 -0.999939,0.999939 1,1 0 0 1 -1.000455,-0.999939 1,1 0 0 1 1.000455,-0.999939 z"
         style="fill:#666666;stroke-width:0.99938989;fill-opacity:1;stroke-dasharray:none"
         id="path5" /><path
         d="m 1.8009237,25.795325 a 1,1 0 0 0 -0.999939,0.999939 1,1 0 0 0 0.999939,0.999939 1,1 0 0 0 0.9999389,-0.999939 1,1 0 0 0 -0.9999389,-0.999939 z"
         style="fill:#999999;fill-opacity:0;stroke-width:0.99938989;stroke-dasharray:none"
         id="path12" /><path
         d="m 6.6533407,34.266125 a 1,1 0 0 0 -0.999939,0.999939 1,1 0 0 0 0.999939,0.999939 1,1 0 0 0 0.9999389,-0.999939 1,1 0 0 0 -0.9999389,-0.999939 z"
         style="fill:#999999;fill-opacity:0;stroke-width:0.99938989;stroke-dasharray:none"
         id="path14" /><path
         d="m 16.412952,34.200496 a 1,1 0 0 0 -0.999939,0.999939 1,1 0 0 0 0.999939,0.999939 1,1 0 0 0 0.999939,-0.999939 1,1 0 0 0 -0.999939,-0.999939 z"
         style="fill:#999999;fill-opacity:0;stroke-width:0.99938989;stroke-dasharray:none"
         id="path16" /><path
         d="m 21.283455,25.833565 a 1,1 0 0 0 -0.999939,0.999939 1,1 0 0 0 0.999939,0.999939 1,1 0 0 0 0.999939,-0.999939 1,1 0 0 0 -0.999939,-0.999939 z"
         style="fill:#999999;fill-opacity:0;stroke-width:0.99938989;stroke-dasharray:none"
         id="path8" /><path
         d="m 16.33492,18.185453 a 1,1 0 0 0 -1.000455,0.999939 1,1 0 0 0 1.000455,0.999939 1,1 0 0 0 0.999939,-0.999939 1,1 0 0 0 -0.999939,-0.999939 z"
         style="fill:#999999;fill-opacity:0.00166387;stroke-width:0.99938989;stroke-dasharray:none"
         id="path6" /><path
         d="m 11.525911,25.7514 a 1,1 0 0 0 -0.999939,0.999939 1,1 0 0 0 0.999939,1.000455 1,1 0 0 0 0.999939,-1.000455 1,1 0 0 0 -0.999939,-0.999939 z"
         style="fill:#999999;fill-opacity:0;stroke-width:0.99938989;stroke-dasharray:none"
         id="path10" /><path
         d="m 6.6977824,18.265035 a 1,1 0 0 0 -0.999939,0.999939 1,1 0 0 0 0.999939,0.999939 1,1 0 0 0 0.999939,-0.999939 1,1 0 0 0 -0.999939,-0.999939 z"
         style="fill:#999999;fill-opacity:0;stroke-width:0.99938989;stroke-dasharray:none"
         id="path4" /><path
         d="m 11.73228,42.71861 c 8.67051,0 16.11919,-7.21574 16.11919,-16.62683 0,-3.59216 -1.10095,-6.8935 -2.95182,-9.59016 -0.66357,-0.96635 -1.42229,-1.85389 -2.26033,-2.64883 H 0.82524 c -0.83818,0.79507 -1.59696,1.68267 -2.26033,2.64896 -1.85087,2.69653 -2.95181,5.99787 -2.95181,9.59003 0,9.41109 7.44868,16.62683 16.11918,16.62683 z M -0.73299,10.00376 H 24.1977 c 1.5599,1.2501 2.9337,2.72925 4.07207,4.38763 2.27637,3.31671 3.6115,7.35016 3.6115,11.70039 0,11.30855 -9.02109,20.80235 -20.14899,20.80235 -11.12805,0 -20.14899,-9.4938 -20.14899,-20.80235 0,-4.35023 1.33498,-8.38368 3.61151,-11.70039 1.13836,-1.65805 2.51217,-3.13753 4.07221,-4.38763 z"
         id="path1-85"
         sodipodi:nodetypes="ssccccsscccssscc"
         style="stroke-width:0.99938989;stroke-dasharray:none;fill:#666666;fill-opacity:1" /></g></g></svg>
