<?xml version="1.0" encoding="UTF-8" standalone="no"?>
<svg
   height="25"
   viewBox="0 0 25 25"
   width="25"
   version="1.1"
   id="svg1"
   sodipodi:docname="ev-plug-nacs.svg"
   inkscape:version="1.3.2 (091e20e, 2023-11-25)"
   xmlns:inkscape="http://www.inkscape.org/namespaces/inkscape"
   xmlns:sodipodi="http://sodipodi.sourceforge.net/DTD/sodipodi-0.dtd"
   xmlns="http://www.w3.org/2000/svg"
   xmlns:svg="http://www.w3.org/2000/svg">
  <defs
     id="defs1" />
  <sodipodi:namedview
     id="namedview1"
     pagecolor="#ffffff"
     bordercolor="#000000"
     borderopacity="0.25"
     inkscape:showpageshadow="2"
     inkscape:pageopacity="0.0"
     inkscape:pagecheckerboard="0"
     inkscape:deskcolor="#d1d1d1"
     inkscape:zoom="7.5866663"
     inkscape:cx="25.505274"
     inkscape:cy="12.324254"
     inkscape:window-width="1920"
     inkscape:window-height="1052"
     inkscape:window-x="0"
     inkscape:window-y="28"
     inkscape:window-maximized="0"
     inkscape:current-layer="svg1" />
  <path
     d="m 6.5,9.5 c 0,-0.55 0.45,-1 1,-1 0.55,0 1,0.45 1,1 0,0.55 -0.45,1 -1,1 -0.55,0 -1,-0.45 -1,-1 m 11,1 c 0.55,0 1,-0.45 1,-1 0,-0.55 -0.45,-1 -1,-1 -0.55,0 -1,0.45 -1,1 0,0.55 0.45,1 1,1 m 5,-0.07 v 1.07 c 0,4.97 -4.03,9 -9,9 h -2 c -4.97,0 -9,-4 -9,-9 V 10.43 C 2.5,7.15 5.15,4.5 8.43,4.5 h 8.14 c 3.28,0 5.93,2.65 5.93,5.93 M 15,9.5 C 15,10.88 16.12,12 17.5,12 18.88,12 20,10.88 20,9.5 20,8.12 18.88,7 17.5,7 16.12,7 15,8.12 15,9.5 M 5,9.5 C 5,10.88 6.12,12 7.5,12 8.88,12 10,10.88 10,9.5 10,8.12 8.88,7 7.5,7 6.12,7 5,8.12 5,9.5 m 4.5,8 c 0,-0.55 -0.45,-1 -1,-1 -0.55,0 -1,0.45 -1,1 0,0.55 0.45,1 1,1 0.55,0 1,-0.45 1,-1 m 4.5,0 C 14,16.67 13.33,16 12.5,16 11.67,16 11,16.67 11,17.5 c 0,0.83 0.67,1.5 1.5,1.5 0.83,0 1.5,-0.67 1.5,-1.5 m 3.5,0 c 0,-0.55 -0.45,-1 -1,-1 -0.55,0 -1,0.45 -1,1 0,0.55 0.45,1 1,1 0.55,0 1,-0.45 1,-1 m 2.97,-5.34 C 19.73,13 18.68,13.5 17.5,13.5 c -2.21,0 -4,-1.79 -4,-4 0,-1.2 0.54,-2.27 1.38,-3 h -4.76 c 0.84,0.73 1.38,1.8 1.38,3 0,2.21 -1.79,4 -4,4 -1.18,0 -2.24,-0.5 -2.97,-1.34 0.16,1.66 0.9,3.16 2.01,4.28 1.67,-1.21 3.72,-1.94 5.96,-1.94 2.24,0 4.29,0.73 5.96,1.94 1.11,-1.12 1.85,-2.62 2.01,-4.28 z"
     id="path1"
     style="stroke-width:1;fill:#666666" />
</svg>
