<?xml version="1.0" encoding="UTF-8" standalone="no"?>
<svg
   height="300.621"
   viewBox="0 0 300 300.621"
   width="300"
   version="1.1"
   id="svg1"
   sodipodi:docname="ev-plug-chademo.svg"
   inkscape:version="1.3.2 (091e20e, 2023-11-25)"
   xmlns:inkscape="http://www.inkscape.org/namespaces/inkscape"
   xmlns:sodipodi="http://sodipodi.sourceforge.net/DTD/sodipodi-0.dtd"
   xmlns="http://www.w3.org/2000/svg"
   xmlns:svg="http://www.w3.org/2000/svg">
  <defs
     id="defs1" />
  <sodipodi:namedview
     id="namedview1"
     pagecolor="#ffffff"
     bordercolor="#000000"
     borderopacity="0.25"
     inkscape:showpageshadow="2"
     inkscape:pageopacity="0.0"
     inkscape:pagecheckerboard="0"
     inkscape:deskcolor="#d1d1d1"
     showgrid="false"
     inkscape:zoom="2.3671875"
     inkscape:cx="143.63036"
     inkscape:cy="177.21452"
     inkscape:window-width="1920"
     inkscape:window-height="1052"
     inkscape:window-x="0"
     inkscape:window-y="28"
     inkscape:window-maximized="0"
     inkscape:current-layer="svg1" />
  <path
     d="m 110,135.3105 c 8.3,0 15,6.7 15,15 0,8.3 -6.7,15 -15,15 -8.3,0 -15,-6.7 -15,-15 0,-8.3 6.7,-15 15,-15 m 0,-15 c -16.6,0 -30,13.4 -30,30 0,16.6 13.4,30 30,30 16.6,0 30,-13.4 30,-30 0,-16.6 -13.4,-30 -30,-30 m 80,15 c 8.3,0 15,6.7 15,15 0,8.3 -6.7,15 -15,15 -8.3,0 -15,-6.7 -15,-15 0,-8.3 6.7,-15 15,-15 m 0,-15 c -16.6,0 -30,13.4 -30,30 0,16.6 13.4,30 30,30 16.6,0 30,-13.4 30,-30 0,-16.6 -13.4,-30 -30,-30 m -18.8,-5.9 -14.1,-14.1 14.1,-14.099998 -7.1,-7.1 -14.1,14.099999 -14.1,-14.099999 -7.1,7.1 14.1,14.099998 -14.1,14.1 7.1,7.1 14.1,-14.1 14.1,14.1 z m 0,100 -14.1,-14.1 14.1,-14.1 -7.1,-7.1 -14.1,14.1 -14.1,-14.1 -7.1,7.1 14.1,14.1 -14.1,14.1 7.1,7.1 14.1,-14.1 14.1,14.1 z m 56.2,-127.399998 7.6,-7.4 -14.3,-14.3 -7.4,7.6 c -17.3,-14.1 -39.3,-22.6 -63.3,-22.6 -24,0 -46,8.5 -63.3,22.6 l -7.4,-7.6 -14.3,14.3 7.6,7.4 C 58.5,104.3105 50,126.3105 50,150.3105 c 0,55 45,100 100,100 55,0 100,-45 100,-100 0,-24 -8.5,-46 -22.6,-63.299998 M 150,230.3105 c -44.1,0 -80,-35.9 -80,-80 0,-44.1 35.9,-79.999998 80,-79.999998 44.1,0 80,35.899998 80,79.999998 0,44.1 -35.9,80 -80,80 z"
     id="path1"
     style="stroke-width:10" />
</svg>
