<?xml version="1.0" encoding="UTF-8" standalone="no"?>
<svg
   height="25"
   viewBox="0 0 25 25"
   width="25"
   version="1.1"
   id="svg1"
   sodipodi:docname="ev-plug-type1.svg"
   inkscape:version="1.3.2 (091e20e, 2023-11-25)"
   xmlns:inkscape="http://www.inkscape.org/namespaces/inkscape"
   xmlns:sodipodi="http://sodipodi.sourceforge.net/DTD/sodipodi-0.dtd"
   xmlns="http://www.w3.org/2000/svg"
   xmlns:svg="http://www.w3.org/2000/svg">
  <defs
     id="defs1" />
  <sodipodi:namedview
     id="namedview1"
     pagecolor="#ffffff"
     bordercolor="#000000"
     borderopacity="0.25"
     inkscape:showpageshadow="2"
     inkscape:pageopacity="0.0"
     inkscape:pagecheckerboard="0"
     inkscape:deskcolor="#d1d1d1"
     showgrid="false"
     inkscape:zoom="25.956711"
     inkscape:cx="12.463058"
     inkscape:cy="12.963892"
     inkscape:window-width="1920"
     inkscape:window-height="1052"
     inkscape:window-x="0"
     inkscape:window-y="28"
     inkscape:window-maximized="0"
     inkscape:current-layer="svg1" />
  <path
     d="m 13.214287,16.785715 c 0,0.4 -0.314287,0.714284 -0.714287,0.714284 -0.4,0 -0.714287,-0.314284 -0.714287,-0.714284 0,-0.4 0.314287,-0.714287 0.714287,-0.714287 0.4,0 0.714287,0.314287 0.714287,0.714287 m 3.571427,-6.428573 c 0.4,0 0.714286,-0.314285 0.714286,-0.7142846 0,-0.4000003 -0.314286,-0.7142858 -0.714286,-0.7142858 -0.4,0 -0.714286,0.3142855 -0.714286,0.7142858 0,0.3999996 0.314286,0.7142846 0.714286,0.7142846 m -8.5714278,0 c 0.4,0 0.7142849,-0.314285 0.7142849,-0.7142846 0,-0.4000003 -0.3142849,-0.7142858 -0.7142849,-0.7142858 -0.4,0 -0.7142862,0.3142855 -0.7142862,0.7142858 0,0.3999996 0.3142862,0.7142846 0.7142862,0.7142846 m 5.7142848,12.028573 v 1.542856 H 11.071429 V 22.385715 C 6.2285711,21.685715 2.4999999,17.542857 2.4999999,12.5 c 0,-5.0428572 3.7285712,-9.1857147 8.5714291,-9.8857146 V 1.0714285 h 2.857142 V 2.6142854 C 18.771428,3.3142853 22.5,7.4999996 22.5,12.499999 c 0,5 -3.728572,9.185716 -8.571429,9.885716 m 0,-12.7428584 c 0,1.5857144 1.285715,2.8571434 2.857142,2.8571434 1.57143,0 2.857143,-1.271429 2.857143,-2.8571434 0,-1.5857138 -1.271428,-2.8571426 -2.857143,-2.8571426 -1.585713,0 -2.857142,1.2857145 -2.857142,2.8571426 m -8.5714279,0 C 5.3571431,11.228571 6.6428567,12.5 8.2142855,12.5 9.7857143,12.5 11.071429,11.228571 11.071429,9.6428566 11.071429,8.0571428 9.8,6.785714 8.2142862,6.785714 c -1.5857151,0 -2.8571431,1.2857145 -2.8571431,2.8571426 m 3.571428,5.7142864 c 0,-1.185713 -0.9571424,-2.142857 -2.1428567,-2.142857 -1.1857144,0 -2.1428576,0.957143 -2.1428576,2.142857 C 4.6428568,16.542857 5.6,17.5 6.7857144,17.5 c 1.1857143,0 2.1428567,-0.957142 2.1428567,-2.142857 m 6.4285719,1.428573 c 0,-1.57143 -1.271429,-2.857144 -2.857143,-2.857144 -1.585713,0 -2.8571433,1.285714 -2.8571433,2.857144 0,1.571427 1.2857143,2.857142 2.8571433,2.857142 1.571428,0 2.857143,-1.27143 2.857143,-2.857142 M 18.214287,17.5 c 1.185713,0 2.142856,-0.957142 2.142856,-2.142857 0,-1.185713 -0.957143,-2.142857 -2.142856,-2.142857 -1.185716,0 -2.142859,0.957143 -2.142859,2.142857 0,1.185715 0.957143,2.142857 2.142859,2.142857 z"
     id="path1"
     style="stroke-width:1.42857;fill:#666666;fill-opacity:1" />
</svg>
