<?xml version="1.0" encoding="UTF-8" standalone="no"?>
<svg
   height="25"
   viewBox="0 0 25 25"
   width="25"
   version="1.1"
   id="svg1"
   sodipodi:docname="ev-plug-chademo.svg"
   inkscape:version="1.3.2 (091e20e, 2023-11-25)"
   xmlns:inkscape="http://www.inkscape.org/namespaces/inkscape"
   xmlns:sodipodi="http://sodipodi.sourceforge.net/DTD/sodipodi-0.dtd"
   xmlns="http://www.w3.org/2000/svg"
   xmlns:svg="http://www.w3.org/2000/svg">
  <defs
     id="defs1" />
  <sodipodi:namedview
     id="namedview1"
     pagecolor="#ffffff"
     bordercolor="#000000"
     borderopacity="0.25"
     inkscape:showpageshadow="2"
     inkscape:pageopacity="0.0"
     inkscape:pagecheckerboard="0"
     inkscape:deskcolor="#d1d1d1"
     showgrid="false"
     inkscape:zoom="18.9375"
     inkscape:cx="23.524752"
     inkscape:cy="21.570957"
     inkscape:window-width="1920"
     inkscape:window-height="1052"
     inkscape:window-x="0"
     inkscape:window-y="28"
     inkscape:window-maximized="0"
     inkscape:current-layer="svg1" />
  <path
     d="M 8.5,11 C 9.33,11 10,11.67 10,12.5 10,13.33 9.33,14 8.5,14 7.67,14 7,13.33 7,12.5 7,11.67 7.67,11 8.5,11 m 0,-1.5 c -1.66,0 -3,1.34 -3,3 0,1.66 1.34,3 3,3 1.66,0 3,-1.34 3,-3 0,-1.66 -1.34,-3 -3,-3 m 8,1.5 C 17.33,11 18,11.67 18,12.5 18,13.33 17.33,14 16.5,14 15.67,14 15,13.33 15,12.5 15,11.67 15.67,11 16.5,11 m 0,-1.5 c -1.66,0 -3,1.34 -3,3 0,1.66 1.34,3 3,3 1.66,0 3,-1.34 3,-3 0,-1.66 -1.34,-3 -3,-3 M 14.62,8.91 13.21,7.5 14.62,6.09 13.91,5.38 12.5,6.79 11.09,5.38 10.38,6.09 11.79,7.5 10.38,8.91 11.09,9.62 12.5,8.21 13.91,9.62 Z m 0,10 -1.41,-1.41 1.41,-1.41 -0.71,-0.71 -1.41,1.41 -1.41,-1.41 -0.71,0.71 1.41,1.41 -1.41,1.41 0.71,0.71 1.41,-1.41 1.41,1.41 z M 20.24,6.17 21,5.43 19.57,4 18.83,4.76 C 17.1,3.35 14.9,2.5 12.5,2.5 10.1,2.5 7.9,3.35 6.17,4.76 L 5.43,4 4,5.43 4.76,6.17 C 3.35,7.9 2.5,10.1 2.5,12.5 c 0,5.5 4.5,10 10,10 5.5,0 10,-4.5 10,-10 0,-2.4 -0.85,-4.6 -2.26,-6.33 M 12.5,20.5 c -4.41,0 -8,-3.59 -8,-8 0,-4.41 3.59,-8 8,-8 4.41,0 8,3.59 8,8 0,4.41 -3.59,8 -8,8 z"
     id="path1"
     style="stroke-width:1;fill:#666666;fill-opacity:1" />
</svg>
