<?xml version="1.0" encoding="UTF-8" standalone="no"?>
<!-- Created with Inkscape (http://www.inkscape.org/) -->

<svg
   width="25"
   height="25"
   viewBox="0 0 6.6145832 6.6145833"
   version="1.1"
   id="svg1"
   xml:space="preserve"
   inkscape:version="1.3.2 (091e20e, 2023-11-25)"
   sodipodi:docname="ev-plug-gbt-fast.svg"
   xmlns:inkscape="http://www.inkscape.org/namespaces/inkscape"
   xmlns:sodipodi="http://sodipodi.sourceforge.net/DTD/sodipodi-0.dtd"
   xmlns="http://www.w3.org/2000/svg"
   xmlns:svg="http://www.w3.org/2000/svg"><sodipodi:namedview
     id="namedview1"
     pagecolor="#ffffff"
     bordercolor="#000000"
     borderopacity="0.25"
     inkscape:showpageshadow="2"
     inkscape:pageopacity="0.0"
     inkscape:pagecheckerboard="0"
     inkscape:deskcolor="#d1d1d1"
     inkscape:document-units="mm"
     showgrid="true"
     inkscape:zoom="36.646702"
     inkscape:cx="9.8371746"
     inkscape:cy="12.456783"
     inkscape:window-width="1920"
     inkscape:window-height="1052"
     inkscape:window-x="0"
     inkscape:window-y="28"
     inkscape:window-maximized="0"
     inkscape:current-layer="layer11"><inkscape:grid
       id="grid70"
       units="mm"
       originx="0"
       originy="0"
       spacingx="0.99999997"
       spacingy="0.99999999"
       empcolor="#0099e5"
       empopacity="0.30196078"
       color="#0099e5"
       opacity="0.14901961"
       empspacing="5"
       dotted="false"
       gridanglex="30"
       gridanglez="30"
       visible="true" /></sodipodi:namedview><defs
     id="defs1"><inkscape:path-effect
       effect="fillet_chamfer"
       id="path-effect3"
       is_visible="true"
       lpeversion="1"
       nodesatellites_param="F,0,0,1,0,0,0,1 @ F,0,0,1,0,0,0,1 @ F,0,0,1,0,0,0,1 @ F,0,0,1,0,0,0,1 @ F,0,0,1,0,0,0,1"
       radius="0"
       unit="px"
       method="auto"
       mode="F"
       chamfer_steps="1"
       flexible="false"
       use_knot_distance="true"
       apply_no_radius="true"
       apply_with_radius="true"
       only_selected="false"
       hide_knots="false" /></defs><g
     inkscape:groupmode="layer"
     id="layer8"
     inkscape:label="plug"
     style="display:inline" /><g
     inkscape:groupmode="layer"
     id="layer7"
     inkscape:label="pins"
     style="display:inline"><ellipse
       style="fill:#1a1a1a;fill-opacity:1;stroke-width:0.264583"
       id="path5"
       cx="65.960457"
       cy="-44.127663"
       rx="0.34655231"
       ry="0.69310462" /></g><g
     inkscape:groupmode="layer"
     id="layer11"
     inkscape:label="pins 1"
     style="display:inline"><g
       id="g80"
       transform="matrix(0.07980442,0,0,0.07980442,-7.1059102,0.13349656)"><path
         d="m 148.5136,33.085836 a 4.0277729,4.0277729 0 0 0 -4.02766,4.028178 4.0277729,4.0277729 0 0 0 4.02766,4.027661 4.0277729,4.0277729 0 0 0 4.02766,-4.027661 4.0277729,4.0277729 0 0 0 -4.02766,-4.028178 z"
         style="display:inline;stroke-width:0.183738"
         id="path17" /><path
         d="m 112.34475,33.085836 a 4.0277729,4.0277729 0 0 0 -4.02766,4.028178 4.0277729,4.0277729 0 0 0 4.02766,4.027661 4.0277729,4.0277729 0 0 0 4.02766,-4.027661 4.0277729,4.0277729 0 0 0 -4.02766,-4.028178 z"
         style="display:inline;stroke-width:0.183738"
         id="path16" /><path
         d="m 108.05955,6.2218424 c -0.0634,0.038613 -0.12913,0.074692 -0.19223,0.1136882 -9.364521,5.7871774 -14.848373,17.9199234 -14.883332,29.4814044 -1.25e-4,20.710705 16.789342,37.500677 37.500042,37.500554 20.71054,-7.3e-5 37.50015,-16.789987 37.50003,-37.500554 -0.004,-11.504367 -5.7319,-23.802176 -15.18202,-29.5950926 z m 8.66562,8.2558266 c 1.91759,4.4e-5 3.4721,1.554552 3.47214,3.47214 -4e-5,1.917588 -1.55455,3.472096 -3.47214,3.472139 -1.91757,-4.3e-5 -3.47209,-1.554551 -3.47213,-3.472139 4e-5,-1.917588 1.55456,-3.472096 3.47213,-3.47214 z m 13.71235,0 c 1.91758,4.4e-5 3.47209,1.554552 3.47214,3.47214 -5e-5,1.917588 -1.55456,3.472096 -3.47214,3.472139 -1.91759,-4.3e-5 -3.4721,-1.554551 -3.47214,-3.472139 4e-5,-1.917588 1.55455,-3.472096 3.47214,-3.47214 z m 13.51028,0 c 1.91759,4.4e-5 3.4721,1.554552 3.47214,3.47214 -4e-5,1.917588 -1.55455,3.472096 -3.47214,3.472139 -1.91759,-4.3e-5 -3.47209,-1.554551 -3.47214,-3.472139 5e-5,-1.917588 1.55455,-3.472096 3.47214,-3.47214 z m -13.51028,12.078333 c 1.91758,4.3e-5 3.47209,1.554551 3.47214,3.472139 -5e-5,1.917588 -1.55456,3.472096 -3.47214,3.47214 -1.91759,-4.4e-5 -3.4721,-1.554552 -3.47214,-3.47214 4e-5,-1.917588 1.55455,-3.472096 3.47214,-3.472139 z m -18.26814,2.043803 c 4.79418,-3.5e-5 8.68064,3.886435 8.68061,8.680607 3e-5,4.794171 -3.88643,8.680641 -8.68061,8.680607 -4.79417,3.4e-5 -8.68064,-3.886436 -8.68061,-8.680607 -3e-5,-4.794172 3.88644,-8.680642 8.68061,-8.680607 z m 36.32492,0 c 4.79416,-3.5e-5 8.68064,3.886435 8.6806,8.680607 4e-5,4.794171 -3.88644,8.680641 -8.6806,8.680607 -4.79418,3.4e-5 -8.68065,-3.886436 -8.68061,-8.680607 -4e-5,-4.794172 3.88643,-8.680642 8.68061,-8.680607 z m -18.01027,20.944458 c 3.06817,-1.06e-4 5.55555,2.487033 5.55573,5.555216 1e-4,3.068386 -2.48736,5.555839 -5.55573,5.555733 -3.06839,1e-4 -5.55584,-2.487351 -5.55574,-5.555733 1.8e-4,-3.068179 2.48755,-5.555316 5.55574,-5.555216 z m -14.69627,1.867069 c 2.1096,1.6e-5 3.81968,1.710337 3.81941,3.819922 -2e-5,2.109383 -1.71002,3.819388 -3.81941,3.819405 -2.10936,-2.2e-5 -3.81938,-1.710026 -3.8194,-3.819405 -2.7e-4,-2.109581 1.70984,-3.8199 3.8194,-3.819922 z m 29.23801,0 c 2.1096,1.6e-5 3.81968,1.710337 3.81941,3.819922 -2e-5,2.109383 -1.71002,3.819388 -3.81941,3.819405 -2.10936,-1.7e-5 -3.81938,-1.710022 -3.8194,-3.819405 -2.7e-4,-2.109585 1.70983,-3.819906 3.8194,-3.819922 z"
         style="display:inline;stroke:#666666;stroke-width:0.183738;stroke-opacity:1;fill:#666666;fill-opacity:1"
         id="path70" /><path
         d="m 145.02577,51.411332 c -2.10957,1.6e-5 -3.81967,1.710337 -3.8194,3.819922 2e-5,2.109383 1.71004,3.819388 3.8194,3.819405 2.10939,-1.7e-5 3.81939,-1.710022 3.81941,-3.819405 2.7e-4,-2.109585 -1.70981,-3.819906 -3.81941,-3.819922 z"
         style="display:inline;fill:#ffffff;fill-opacity:0;stroke:none;stroke-width:0.183738;stroke-opacity:1"
         id="path79" /><path
         d="m 115.78776,51.411332 c -2.10956,2.2e-5 -3.81967,1.710341 -3.8194,3.819922 2e-5,2.109379 1.71004,3.819383 3.8194,3.819405 2.10939,-1.7e-5 3.81939,-1.710022 3.81941,-3.819405 2.7e-4,-2.109585 -1.70981,-3.819906 -3.81941,-3.819922 z"
         style="display:inline;fill:none;stroke:none;stroke-width:0.183738;stroke-opacity:1"
         id="path78" /><path
         d="m 130.48403,49.544263 c -3.06819,-1e-4 -5.55556,2.487037 -5.55574,5.555216 -1e-4,3.068382 2.48735,5.555833 5.55574,5.555733 3.06837,1.06e-4 5.55583,-2.487347 5.55573,-5.555733 -1.8e-4,-3.068183 -2.48756,-5.555322 -5.55573,-5.555216 z"
         style="display:inline;fill:#ffffff;fill-opacity:0.00499166;stroke:none;stroke-width:0.183738;stroke-opacity:1"
         id="path77" /><path
         d="m 148.4943,28.599805 c -4.79418,-3.5e-5 -8.68065,3.886435 -8.68061,8.680607 -4e-5,4.794171 3.88643,8.680641 8.68061,8.680607 4.79416,3.4e-5 8.68064,-3.886436 8.6806,-8.680607 4e-5,-4.794172 -3.88644,-8.680642 -8.6806,-8.680607 z"
         style="display:inline;fill:none;stroke:none;stroke-width:0.183738;stroke-opacity:1"
         id="path76" /><path
         d="m 112.16938,28.599805 c -4.79417,-3.5e-5 -8.68064,3.886435 -8.68061,8.680607 -3e-5,4.794171 3.88644,8.680641 8.68061,8.680607 4.79418,3.4e-5 8.68064,-3.886436 8.68061,-8.680607 3e-5,-4.794172 -3.88643,-8.680642 -8.68061,-8.680607 z"
         style="display:inline;fill:none;stroke:none;stroke-width:0.183738;stroke-opacity:1"
         id="path75" /><path
         d="m 130.43752,26.556002 c -1.91759,4.3e-5 -3.4721,1.554551 -3.47214,3.472139 4e-5,1.917588 1.55455,3.472096 3.47214,3.47214 1.91758,-4.4e-5 3.47209,-1.554552 3.47214,-3.47214 -5e-5,-1.917588 -1.55456,-3.472096 -3.47214,-3.472139 z"
         style="display:inline;fill:none;stroke:#ffffff;stroke-width:0.183738;stroke-opacity:1"
         id="path74" /><path
         d="m 143.9478,14.477669 c -1.91759,4.4e-5 -3.47209,1.554552 -3.47214,3.47214 5e-5,1.917588 1.55455,3.472096 3.47214,3.472139 1.91759,-4.3e-5 3.4721,-1.554551 3.47214,-3.472139 -4e-5,-1.917588 -1.55455,-3.472096 -3.47214,-3.47214 z"
         style="display:inline;fill:none;stroke:none;stroke-width:0.183738;stroke-opacity:1"
         id="path73" /><path
         d="m 130.43752,14.477669 c -1.91759,4.4e-5 -3.4721,1.554552 -3.47214,3.47214 4e-5,1.917588 1.55455,3.472096 3.47214,3.472139 1.91758,-4.3e-5 3.47209,-1.554551 3.47214,-3.472139 -5e-5,-1.917588 -1.55456,-3.472096 -3.47214,-3.47214 z"
         style="display:inline;fill:none;stroke:none;stroke-width:0.183738;stroke-opacity:1"
         id="path72" /><path
         d="m 116.72517,14.477669 c -1.91757,4.4e-5 -3.47209,1.554552 -3.47213,3.47214 4e-5,1.917588 1.55456,3.472096 3.47213,3.472139 1.91759,-4.3e-5 3.4721,-1.554551 3.47214,-3.472139 -4e-5,-1.917588 -1.55455,-3.472096 -3.47214,-3.47214 z"
         style="display:inline;fill:none;stroke:none;stroke-width:0.183738;stroke-opacity:1"
         id="path71" /><path
         d="m 148.51342,33.085836 c -2.22459,6.2e-5 -4.02789,1.803588 -4.02767,4.028178 6e-5,2.224387 1.80328,4.027599 4.02767,4.027661 2.22438,-6.2e-5 4.0276,-1.803274 4.02766,-4.027661 2.2e-4,-2.22459 -1.80308,-4.028116 -4.02766,-4.028178 z"
         style="display:inline;fill:#ffffff;stroke-width:0.183738"
         id="path44" /><path
         d="m 148.4943,28.599805 a 8.6805449,8.6805449 0 0 0 -8.68061,8.680607 8.6805449,8.6805449 0 0 0 8.68061,8.680607 8.6805449,8.6805449 0 0 0 8.6806,-8.680607 8.6805449,8.6805449 0 0 0 -8.6806,-8.680607 z m 0.0191,4.486031 c 2.22458,6.2e-5 4.02788,1.803588 4.02766,4.028178 -6e-5,2.224387 -1.80328,4.027599 -4.02766,4.027661 -2.22439,-6.2e-5 -4.02761,-1.803274 -4.02767,-4.027661 -2.2e-4,-2.22459 1.80308,-4.028116 4.02767,-4.028178 z m -18.0759,17.001546 c 3.06818,-1.06e-4 5.55555,2.48703 5.55573,5.555216 10e-5,3.068389 -2.48735,5.55584 -5.55573,5.555734 -3.06839,10e-5 -5.55584,-2.487349 -5.55574,-5.555734 1.8e-4,-3.068182 2.48755,-5.555316 5.55574,-5.555216 z m -14.64976,1.32395 c 2.1096,1.6e-5 3.81968,1.710329 3.81941,3.819922 -2e-5,2.109391 -1.71002,3.819388 -3.81941,3.819405 -2.10938,-2.2e-5 -3.81938,-1.710018 -3.8194,-3.819405 -2.7e-4,-2.109589 1.70982,-3.8199 3.8194,-3.819922 z m 29.23801,0 c 2.1096,1.6e-5 3.81968,1.710329 3.81941,3.819922 -2e-5,2.109391 -1.71002,3.819388 -3.81941,3.819405 -2.10938,-1.7e-5 -3.81938,-1.710014 -3.8194,-3.819405 -2.7e-4,-2.109593 1.70981,-3.819906 3.8194,-3.819922 z"
         style="display:inline;fill:#ffffff;fill-opacity:0;stroke-width:0.183738"
         id="path43" /><path
         d="m 112.16938,28.599805 a 8.6805449,8.6805449 0 0 0 -8.68061,8.680607 8.6805449,8.6805449 0 0 0 8.68061,8.680607 8.6805449,8.6805449 0 0 0 8.68061,-8.680607 8.6805449,8.6805449 0 0 0 -8.68061,-8.680607 z"
         style="display:inline;fill:#ffffff;fill-opacity:0;stroke-width:0.183738"
         id="path42" /><path
         d="m 130.43752,26.556002 a 3.472218,3.472218 0 0 0 -3.47214,3.472139 3.472218,3.472218 0 0 0 3.47214,3.47214 3.472218,3.472218 0 0 0 3.47214,-3.47214 3.472218,3.472218 0 0 0 -3.47214,-3.472139 z"
         style="display:inline;fill:#ffffff;fill-opacity:0;stroke-width:0.183738"
         id="path41" /><path
         d="m 143.9478,14.477669 a 3.472218,3.472218 0 0 0 -3.47214,3.47214 3.472218,3.472218 0 0 0 3.47214,3.472139 3.472218,3.472218 0 0 0 3.47214,-3.472139 3.472218,3.472218 0 0 0 -3.47214,-3.47214 z"
         style="display:inline;fill:#ffffff;fill-opacity:0;stroke-width:0.183738"
         id="path40" /><path
         d="m 130.43752,14.477669 a 3.472218,3.472218 0 0 0 -3.47214,3.47214 3.472218,3.472218 0 0 0 3.47214,3.472139 3.472218,3.472218 0 0 0 3.47214,-3.472139 3.472218,3.472218 0 0 0 -3.47214,-3.47214 z"
         style="display:inline;fill:#ffffff;fill-opacity:0;stroke-width:0.183738"
         id="path39" /><path
         d="m 116.72517,14.477669 a 3.472218,3.472218 0 0 0 -3.47213,3.47214 3.472218,3.472218 0 0 0 3.47213,3.472139 3.472218,3.472218 0 0 0 3.47214,-3.472139 3.472218,3.472218 0 0 0 -3.47214,-3.47214 z"
         style="display:inline;fill:#ffffff;fill-opacity:0;stroke-width:0.183738"
         id="path38" /><path
         d="m 130.4377,14.477669 a 3.472218,3.472218 0 0 0 -3.47214,3.47214 3.472218,3.472218 0 0 0 3.47214,3.472139 3.472218,3.472218 0 0 0 3.47214,-3.472139 3.472218,3.472218 0 0 0 -3.47214,-3.47214 z"
         style="display:inline;fill:#ffffff;fill-opacity:0;stroke-width:0.183738"
         id="path11" /><path
         d="m 143.94799,14.477669 a 3.472218,3.472218 0 0 0 -3.47214,3.47214 3.472218,3.472218 0 0 0 3.47214,3.472139 3.472218,3.472218 0 0 0 3.47214,-3.472139 3.472218,3.472218 0 0 0 -3.47214,-3.47214 z"
         style="display:inline;fill:#ffffff;fill-opacity:0;stroke-width:0.183738"
         id="path12" /><path
         d="m 145.02596,51.411332 a 3.8194399,3.8194399 0 0 0 -3.81941,3.819922 3.8194399,3.8194399 0 0 0 3.81941,3.819405 3.8194399,3.8194399 0 0 0 3.81941,-3.819405 3.8194399,3.8194399 0 0 0 -3.81941,-3.819922 z"
         style="display:inline;fill:#ffffff;fill-opacity:0;stroke-width:0.183738"
         id="path20" /><path
         d="m 130.4377,26.556002 a 3.472218,3.472218 0 0 0 -3.47214,3.472139 3.472218,3.472218 0 0 0 3.47214,3.47214 3.472218,3.472218 0 0 0 3.47214,-3.47214 3.472218,3.472218 0 0 0 -3.47214,-3.472139 z"
         style="display:inline;fill:#ffffff;fill-opacity:0;stroke-width:0.183738"
         id="path13" /><path
         d="m 115.78795,51.411332 a 3.8194399,3.8194399 0 0 0 -3.8194,3.819922 3.8194399,3.8194399 0 0 0 3.8194,3.819405 3.8194399,3.8194399 0 0 0 3.81941,-3.819405 3.8194399,3.8194399 0 0 0 -3.81941,-3.819922 z"
         style="display:inline;fill:#ffffff;fill-opacity:0;stroke-width:0.183738"
         id="path19" /><path
         d="m 116.72536,14.477669 a 3.472218,3.472218 0 0 0 -3.47214,3.47214 3.472218,3.472218 0 0 0 3.47214,3.472139 3.472218,3.472218 0 0 0 3.47214,-3.472139 3.472218,3.472218 0 0 0 -3.47214,-3.47214 z"
         style="display:inline;fill:#ffffff;fill-opacity:0;stroke-width:0.183738"
         id="path10" /><path
         d="m 112.34456,33.085836 a 4.0277729,4.0277729 0 0 0 -4.02766,4.028178 4.0277729,4.0277729 0 0 0 4.02766,4.027661 4.0277729,4.0277729 0 0 0 4.02766,-4.027661 4.0277729,4.0277729 0 0 0 -4.02766,-4.028178 z"
         style="stroke:#666666;stroke-width:0.183738;fill:#666666;stroke-opacity:1;fill-opacity:1"
         id="path29" /><path
         d="m 148.5136,33.085836 a 4.0277729,4.0277729 0 0 0 -4.02766,4.028178 4.0277729,4.0277729 0 0 0 4.02766,4.027661 4.0277729,4.0277729 0 0 0 4.02766,-4.027661 4.0277729,4.0277729 0 0 0 -4.02766,-4.028178 z"
         style="display:inline;stroke:#666666;stroke-width:0.183738;fill:#666666;stroke-opacity:1;fill-opacity:1"
         id="path3" /></g></g></svg>
