<?xml version="1.0" encoding="UTF-8" standalone="no"?>
<svg
   height="300.621"
   viewBox="0 0 300 300.621"
   width="300"
   version="1.1"
   id="svg1"
   sodipodi:docname="ev-plug-tesla.svg"
   inkscape:version="1.3.2 (091e20e, 2023-11-25)"
   xmlns:inkscape="http://www.inkscape.org/namespaces/inkscape"
   xmlns:sodipodi="http://sodipodi.sourceforge.net/DTD/sodipodi-0.dtd"
   xmlns="http://www.w3.org/2000/svg"
   xmlns:svg="http://www.w3.org/2000/svg">
  <defs
     id="defs1" />
  <sodipodi:namedview
     id="namedview1"
     pagecolor="#ffffff"
     bordercolor="#000000"
     borderopacity="0.25"
     inkscape:showpageshadow="2"
     inkscape:pageopacity="0.0"
     inkscape:pagecheckerboard="0"
     inkscape:deskcolor="#d1d1d1"
     inkscape:zoom="1.3411458"
     inkscape:cx="-48.093204"
     inkscape:cy="164.41165"
     inkscape:window-width="1920"
     inkscape:window-height="1080"
     inkscape:window-x="0"
     inkscape:window-y="0"
     inkscape:window-maximized="0"
     inkscape:current-layer="svg1" />
  <path
     d="m 75,112.8105 c 0,-6.875 5.625,-12.5 12.5,-12.5 6.875,0 12.5,5.625 12.5,12.5 0,6.875 -5.625,12.5 -12.5,12.5 -6.875,0 -12.5,-5.625 -12.5,-12.5 m 137.5,12.5 c 6.875,0 12.5,-5.625 12.5,-12.5 0,-6.875 -5.625,-12.5 -12.5,-12.5 -6.875,0 -12.5,5.625 -12.5,12.5 0,6.875 5.625,12.5 12.5,12.5 m 62.5,-0.875 v 13.375 c 0,62.125 -50.375,112.5 -112.5,112.5 h -25 c -62.125,0 -112.5,-50 -112.5,-112.5 v -13.375 C 25,83.435501 58.125,50.310502 99.125,50.310502 h 101.75 c 41,0 74.125,33.124999 74.125,74.124998 m -93.75,-11.625 c 0,17.25 14,31.25 31.25,31.25 17.25,0 31.25,-14 31.25,-31.25 0,-17.249999 -14,-31.249999 -31.25,-31.249999 -17.25,0 -31.25,14 -31.25,31.249999 m -125,0 c 0,17.25 14,31.25 31.25,31.25 17.25,0 31.25,-14 31.25,-31.25 0,-17.249999 -14,-31.249999 -31.25,-31.249999 -17.25,0 -31.25,14 -31.25,31.249999 m 56.25,100 c 0,-6.875 -5.625,-12.5 -12.5,-12.5 -6.875,0 -12.5,5.625 -12.5,12.5 0,6.875 5.625,12.5 12.5,12.5 6.875,0 12.5,-5.625 12.5,-12.5 m 56.25,0 c 0,-10.375 -8.375,-18.75 -18.75,-18.75 -10.375,0 -18.75,8.375 -18.75,18.75 0,10.375 8.375,18.75 18.75,18.75 10.375,0 18.75,-8.375 18.75,-18.75 m 43.75,0 c 0,-6.875 -5.625,-12.5 -12.5,-12.5 -6.875,0 -12.5,5.625 -12.5,12.5 0,6.875 5.625,12.5 12.5,12.5 6.875,0 12.5,-5.625 12.5,-12.5 m 37.125,-66.75 c -9.25,10.5 -22.375,16.75 -37.125,16.75 -27.625,0 -50,-22.375 -50,-50 0,-14.999999 6.75,-28.374999 17.25,-37.499998 h -59.5 c 10.5,9.124999 17.25,22.499999 17.25,37.499998 0,27.625 -22.375,50 -50,50 -14.75,0 -28,-6.25 -37.125,-16.75 2,20.75 11.25,39.5 25.125,53.5 20.875,-15.125 46.5,-24.25 74.5,-24.25 28,0 53.625,9.125 74.5,24.25 13.875,-14 23.125,-32.75 25.125,-53.5 z"
     id="path1"
     style="stroke-width:12.5" />
</svg>
