<?xml version="1.0" encoding="UTF-8" standalone="no"?>
<!-- Created with Inkscape (http://www.inkscape.org/) -->

<svg
   width="300"
   height="300.621"
   viewBox="0 0 79.374999 79.539309"
   version="1.1"
   id="svg1"
   xml:space="preserve"
   inkscape:version="1.3.2 (091e20e, 2023-11-25)"
   sodipodi:docname="ev-plug-gbt-standart.svg"
   xmlns:inkscape="http://www.inkscape.org/namespaces/inkscape"
   xmlns:sodipodi="http://sodipodi.sourceforge.net/DTD/sodipodi-0.dtd"
   xmlns="http://www.w3.org/2000/svg"
   xmlns:svg="http://www.w3.org/2000/svg"><sodipodi:namedview
     id="namedview1"
     pagecolor="#ffffff"
     bordercolor="#000000"
     borderopacity="0.25"
     inkscape:showpageshadow="2"
     inkscape:pageopacity="0.0"
     inkscape:pagecheckerboard="0"
     inkscape:deskcolor="#d1d1d1"
     inkscape:document-units="mm"
     inkscape:zoom="1.1452094"
     inkscape:cx="217.42748"
     inkscape:cy="147.13466"
     inkscape:window-width="1920"
     inkscape:window-height="1052"
     inkscape:window-x="0"
     inkscape:window-y="28"
     inkscape:window-maximized="0"
     inkscape:current-layer="layer6" /><defs
     id="defs1" /><g
     inkscape:groupmode="layer"
     id="layer3"
     inkscape:label="svg" /><g
     inkscape:groupmode="layer"
     id="layer5"
     inkscape:label="pins_"
     style="display:inline" /><g
     inkscape:groupmode="layer"
     id="layer4"
     inkscape:label="pins"
     style="display:inline" /><g
     inkscape:groupmode="layer"
     id="layer6"
     inkscape:label="ring"><g
       id="g4"
       transform="translate(-106.73775,-132.93579)"><g
         id="g3"
         style="display:inline"><circle
           style="fill:#1a1a1a;stroke-width:0.264583"
           id="path2"
           cx="141.36447"
           cy="179.42747"
           r="4" /><circle
           style="fill:#1a1a1a;stroke-width:0.264583"
           id="path2-5"
           cx="151.12114"
           cy="179.4637"
           r="4" /><circle
           style="fill:#1a1a1a;stroke-width:0.264583"
           id="path2-5-5"
           cx="155.88191"
           cy="170.98633"
           r="4" /><circle
           style="fill:#1a1a1a;stroke-width:0.264583"
           id="path2-5-5-8"
           cx="146.24933"
           cy="170.92441"
           r="4" /><circle
           style="fill:#1a1a1a;stroke-width:0.264583"
           id="path2-5-5-8-6"
           cx="136.72054"
           cy="170.92061"
           r="4" /><circle
           style="fill:#1a1a1a;stroke-width:0.264583"
           id="path2-5-5-8-1"
           cx="141.31529"
           cy="163.46939"
           r="3.5" /><circle
           style="fill:#1a1a1a;stroke-width:0.264583"
           id="path2-5-5-8-1-9"
           cx="150.97495"
           cy="163.37196"
           r="3.5" /></g><g
         id="g1"
         style="display:inline;fill:#ffffff;fill-opacity:1"><circle
           style="fill:#ffffff;fill-opacity:1;stroke-width:0.10411"
           id="path1"
           cx="136.494"
           cy="171.0519"
           r="1" /><circle
           style="fill:#ffffff;fill-opacity:1;stroke-width:0.10411"
           id="path1-8"
           cx="141.34637"
           cy="179.52271"
           r="1" /><circle
           style="fill:#ffffff;fill-opacity:1;stroke-width:0.10411"
           id="path1-8-6"
           cx="151.10573"
           cy="179.45705"
           r="1" /><circle
           style="fill:#ffffff;fill-opacity:1;stroke-width:0.10411"
           id="path1-8-6-3"
           cx="155.97658"
           cy="171.08984"
           r="1" /><circle
           style="fill:#ffffff;fill-opacity:1;stroke-width:0.10411"
           id="path1-8-6-1"
           cx="151.02768"
           cy="163.4418"
           r="1" /><circle
           style="fill:#ffffff;fill-opacity:1;stroke-width:0.10411"
           id="path1-8-6-1-3"
           cx="146.21896"
           cy="171.00807"
           r="1" /><circle
           style="fill:#ffffff;fill-opacity:1;stroke-width:0.10411"
           id="path1-8-6-1-1"
           cx="141.39081"
           cy="163.52165"
           r="1" /></g><path
         d="m 146.42525,186.97511 c 8.67051,0 16.11919,-7.21574 16.11919,-16.62683 0,-3.59216 -1.10095,-6.8935 -2.95182,-9.59016 -0.66357,-0.96635 -1.42229,-1.85389 -2.26033,-2.64883 h -21.81408 c -0.83818,0.79507 -1.59696,1.68267 -2.26033,2.64896 -1.85087,2.69653 -2.95181,5.99787 -2.95181,9.59003 0,9.41109 7.44868,16.62683 16.11918,16.62683 z m -12.46527,-32.71485 h 24.93069 c 1.5599,1.2501 2.9337,2.72925 4.07207,4.38763 2.27637,3.31671 3.6115,7.35016 3.6115,11.70039 0,11.30855 -9.02109,20.80235 -20.14899,20.80235 -11.12805,0 -20.14899,-9.4938 -20.14899,-20.80235 0,-4.35023 1.33498,-8.38368 3.61151,-11.70039 1.13836,-1.65805 2.51217,-3.13753 4.07221,-4.38763 z"
         id="path1-85"
         sodipodi:nodetypes="ssccccsscccssscc"
         style="stroke-width:0.15753" /></g></g></svg>
