<?xml version="1.0" encoding="UTF-8" standalone="no"?>
<svg
   height="300.621"
   viewBox="0 0 300 300.621"
   width="300"
   version="1.1"
   id="svg1"
   sodipodi:docname="ev-plug-type2.svg"
   inkscape:version="1.3.2 (091e20e, 2023-11-25)"
   xmlns:inkscape="http://www.inkscape.org/namespaces/inkscape"
   xmlns:sodipodi="http://sodipodi.sourceforge.net/DTD/sodipodi-0.dtd"
   xmlns="http://www.w3.org/2000/svg"
   xmlns:svg="http://www.w3.org/2000/svg">
  <defs
     id="defs1" />
  <sodipodi:namedview
     id="namedview1"
     pagecolor="#ffffff"
     bordercolor="#000000"
     borderopacity="0.25"
     inkscape:showpageshadow="2"
     inkscape:pageopacity="0.0"
     inkscape:pagecheckerboard="0"
     inkscape:deskcolor="#d1d1d1"
     inkscape:zoom="1.1263021"
     inkscape:cx="-41.72948"
     inkscape:cy="-43.949133"
     inkscape:window-width="1920"
     inkscape:window-height="1052"
     inkscape:window-x="0"
     inkscape:window-y="28"
     inkscape:window-maximized="0"
     inkscape:current-layer="svg1" />
  <path
     d="m 93.75,137.8105 c 0,3.5 -2.75,6.25 -6.25,6.25 -3.5,0 -6.25,-2.75 -6.25,-6.25 0,-3.5 2.75,-6.25 6.25,-6.25 3.5,0 6.25,2.75 6.25,6.25 m 25,43.75 c -3.5,0 -6.25,2.75 -6.25,6.25 0,3.5 2.75,6.25 6.25,6.25 3.5,0 6.25,-2.75 6.25,-6.25 0,-3.5 -2.75,-6.25 -6.25,-6.25 m 0,-81.25 c 3.5,0 6.25,-2.749999 6.25,-6.249999 0,-3.5 -2.75,-6.249999 -6.25,-6.249999 -3.5,0 -6.25,2.749999 -6.25,6.249999 0,3.5 2.75,6.249999 6.25,6.249999 m 62.5,0 c 3.5,0 6.25,-2.749999 6.25,-6.249999 0,-3.5 -2.75,-6.249999 -6.25,-6.249999 -3.5,0 -6.25,2.749999 -6.25,6.249999 0,3.5 2.75,6.249999 6.25,6.249999 m -31.25,31.25 c -3.5,0 -6.25,2.75 -6.25,6.25 0,3.5 2.75,6.25 6.25,6.25 3.5,0 6.25,-2.75 6.25,-6.25 0,-3.5 -2.75,-6.25 -6.25,-6.25 m 100,6.25 c 0,55.25 -44.75,100 -100,100 -55.25,0 -100,-44.75 -100,-100 0,-29.87499 13.25,-56.624998 34,-74.999998 h 132 c 20.75,18.375 34,45.125008 34,74.999998 M 162.5,94.060501 c 0,10.375009 8.37501,18.749999 18.75,18.749999 10.37501,0 18.75,-8.37499 18.75,-18.749999 0,-10.374999 -8.37499,-18.749999 -18.75,-18.749999 -10.37499,0 -18.75,8.375 -18.75,18.749999 m -62.5,0 c 0,10.375009 8.37501,18.749999 18.75,18.749999 10.37499,0 18.75,-8.37499 18.75,-18.749999 0,-10.374999 -8.37501,-18.749999 -18.75,-18.749999 -10.37499,0 -18.75,8.375 -18.75,18.749999 M 87.5,162.8105 c 13.87501,0 25,-11.12499 25,-25 0,-13.75 -11.12499,-25 -25,-25 -13.875,0 -25,11.25 -25,25 0,13.87501 11.25,25 25,25 m 56.25,25 c 0,-13.75 -11.12501,-25 -25,-25 -13.87499,0 -25,11.25 -25,25 0,13.87501 11.25,25 25,25 13.75,0 25,-11.12499 25,-25 m 6.25,-25 c 13.87501,0 25,-11.12499 25,-25 0,-13.75 -11.12499,-25 -25,-25 -13.87501,0 -25,11.25 -25,25 0,13.87501 11.25,25 25,25 m 56.25,25 c 0,-13.75 -11.12501,-25 -25,-25 -13.87499,0 -25,11.25 -25,25 0,13.87501 11.25,25 25,25 13.75,0 25,-11.12499 25,-25 m 31.25,-50 c 0,-13.75 -11.12501,-25 -25,-25 -13.87501,0 -25,11.25 -25,25 0,13.87501 11.25,25 25,25 13.75,0 25,-11.12499 25,-25 m -25,-6.25 c -3.5,0 -6.25,2.75 -6.25,6.25 0,3.5 2.75,6.25 6.25,6.25 3.5,0 6.25,-2.75 6.25,-6.25 0,-3.5 -2.75,-6.25 -6.25,-6.25 m -31.25,50 c -3.5,0 -6.25,2.75 -6.25,6.25 0,3.5 2.75,6.25 6.25,6.25 3.5,0 6.25,-2.75 6.25,-6.25 0,-3.5 -2.75,-6.25 -6.25,-6.25 z"
     id="path1"
     style="stroke-width:12.5" />
</svg>
