<?xml version="1.0" encoding="UTF-8" standalone="no"?>
<svg
   enable-background="new 0 0 1000 535.9"
   viewBox="0 0 1000 535.9"
   version="1.1"
   id="svg3"
   sodipodi:docname="logo-cpo_2.svg"
   inkscape:version="1.3.2 (091e20e, 2023-11-25)"
   xmlns:inkscape="http://www.inkscape.org/namespaces/inkscape"
   xmlns:sodipodi="http://sodipodi.sourceforge.net/DTD/sodipodi-0.dtd"
   xmlns="http://www.w3.org/2000/svg"
   xmlns:svg="http://www.w3.org/2000/svg">
  <defs
     id="defs3" />
  <sodipodi:namedview
     id="namedview3"
     pagecolor="#ffffff"
     bordercolor="#000000"
     borderopacity="0.25"
     inkscape:showpageshadow="2"
     inkscape:pageopacity="0.0"
     inkscape:pagecheckerboard="0"
     inkscape:deskcolor="#d1d1d1"
     inkscape:zoom="0.865"
     inkscape:cx="509.24855"
     inkscape:cy="265.31792"
     inkscape:window-width="1920"
     inkscape:window-height="1052"
     inkscape:window-x="0"
     inkscape:window-y="28"
     inkscape:window-maximized="0"
     inkscape:current-layer="svg3" />
  <path
     d="m642.5 120.5-21.1 23 125 114.6h-492.7l125-114.7-21.1-23-150 137.7h-.1v43.9l585 1v-44.9z"
     fill="#015fb8"
     id="path1"
     style="fill:#001120;fill-opacity:1" />
  <path
     d="m 524,302.4 v 47.8 c 0,41 39.5,74.4 88,74.4 h 92.5 c 48.5,0 88,-33.4 88,-74.4 v -47.8 z"
     id="path2"
     style="fill:#00e1ff;fill-opacity:1" />
  <path
     d="m 207.5,301.4 v 48.8 c 0,41 39.5,74.4 88,74.4 H 388 c 48.5,0 88,-33.4 88,-74.4 v -47.8"
     id="path3"
     style="fill:#00e1ff;fill-opacity:1" />
  <path
     id="path2996"
     style="fill:#ffd500;stroke:#ffbf00;stroke-width:1.20674;stroke-linejoin:round"
     d="m 317.67427,362.92351 14.62828,-34.13211 h 33.52324 l -24.22802,24.53223 h 19.96142 l -39.16195,43.88514 10.05748,-34.43759 z" />
  <path
     id="path2996-9"
     style="fill:#ffd500;stroke:#ffbf00;stroke-width:1.20674;stroke-linejoin:round"
     d="m 634.17423,363.42351 14.6283,-34.13211 h 33.5233 l -24.2281,24.53223 h 19.9615 l -39.162,43.88514 10.0575,-34.43759 z" />
</svg>
